<svg width="35" height="35" viewBox="0 0 35 35" fill="none" xmlns="http://www.w3.org/2000/svg">
<path fill-rule="evenodd" clip-rule="evenodd" d="M25.3497 4.99805C25.0293 4.71202 24.6605 4.55848 24.2478 4.57952C23.8352 4.57952 23.4664 4.73305 23.1679 5.04222L20.7336 7.46298L27.5535 13.7788L30.0097 11.3139C30.3082 11.0279 30.4224 10.6535 30.4224 10.2581C30.4224 9.86271 30.2621 9.48835 29.9636 9.22334L25.3497 4.99805ZM13.6767 27.6241C12.7812 27.9101 11.8637 28.1751 10.9659 28.4612C10.0703 28.7472 9.17478 29.0332 8.25508 29.3193C6.11935 29.9797 4.94722 30.354 4.69479 30.4192C4.44237 30.4844 4.6026 29.5401 5.1316 27.5589L6.83053 21.3314L6.97101 21.1926L13.6789 27.6199L13.6767 27.6241ZM9.45355 18.7213L18.8898 9.29485L25.7097 15.5876L16.1593 25.1465L9.45355 18.7213Z" fill="white"/>
</svg>
